# xmcd
#
# Track frame offsets:
#	150
#	13708
#	27697
#	43404
#	57458
#	71222
#	85282
#	96110
#	107069
#	119951
#	133692
#	147254
#	161244
#	176956
#	191010
#	204774
#	218832
#	229660
#	240618
#	253500
#
# Disc length: 3561 seconds
#
# Revision: 0
# Processed by: cddbd v1.5.2PL0 Copyright (c) Steve Scherf et al.
# Submitted via: audiograbber 1.83.01
#
DISCID=390de714
DTITLE=Etta James - Sing The Hits of Etta Jalmes
DYEAR=1900
DGENRE=R&B
TTITLE0=At Last    (with Vocal)
TTITLE1=Trust In Me    (with Vocal)
TTITLE2=A Sunday Kind Of Love    (with Vocal)
TTITLE3=Stormy Weather    (with Vocal)
TTITLE4=If I Can't Have You    (with Vocal)
TTITLE5=All I Could Do Is Cry    (with Vocal)
TTITLE6=Tell Mama    (with Vocal)
TTITLE7=Don't Cry Baby    (with Vocal)
TTITLE8=Fool That I Am    (with Vocal)
TTITLE9=My Dearest Darling    (with Vocal)
TTITLE10=At Last   (Without Vocal)
TTITLE11=Trust In Me    (Without Vocal)
TTITLE12=A Sunday Kind Of Love    (Without Vocal)
TTITLE13=Stormy Weather    (Without Vocal)
TTITLE14=If I Can't Have You    (Without Vocal)
TTITLE15=All I Could Do was Cry     (Without Vocal)
TTITLE16=Tell Mama    (Without Vocal)
TTITLE17=Don't Cry Baby     (Without Vocal)
TTITLE18=Fool That I Am    (Without Vocal)
TTITLE19=My Dearest Darling    (Without Vocal)
EXTD=Karaoke Disc
EXTT0=
EXTT1=
EXTT2=
EXTT3=
EXTT4=
EXTT5=
EXTT6=
EXTT7=
EXTT8=
EXTT9=
EXTT10=
EXTT11=
EXTT12=
EXTT13=
EXTT14=
EXTT15=
EXTT16=
EXTT17=
EXTT18=
EXTT19=
PLAYORDER=
